# xmcd
#
# Track frame offsets:
#        150
#        18650
#        37450
#        56240
#        74117
#        92050
#        110592
#        128372
#        146957
#        164652
#        181310
#        200447
#        219187
#        237975
#        257205
#        274977
#        291130
#        309545
#        340032
#
# Disc length: 4795 seconds
#
# Revision: 0
# Processed by: cddbd v1.5.1PL0 Copyright (c) Steve Scherf et al.
# Submitted via: ExactAudioCopy v0.95b1
#
DISCID=3712b913
DTITLE=Various Artist - SUPER EUROBEAT Vol.157
DYEAR=2005
DGENRE=Eurodance
TTITLE0=LOLITA - MY HEART BURNS LIKE A FIRE
TTITLE1=MEGA NRG MAN - SUPERTONIC LADY
TTITLE2=CHERRY - SHE'S ALL RIGHT
TTITLE3=MR.M - NO REASON TO CRY
TTITLE4=NUAGE - LET'S GO DEE JAY
TTITLE5=LESLIE PARRISH - FALLING FREE
TTITLE6=J.STORM - VISION OF PARADISE
TTITLE7=ELISA - THE WAY YOU LOVE ME
TTITLE8=PRISCILLA - I DON'T WANNA STOP
TTITLE9=BOOGABOO - BUGABUGA CHEW CHEW
TTITLE10=OVERLOAD - TERMINATOR
TTITLE11=DELTA QUEENS - SATISFACTION
TTITLE12=CASANOVA - THE HERO
TTITLE13=LISA LION - WONDERFUL FEELIN'
TTITLE14=FREDDY R. - R U READY
TTITLE15=HELENA - MELODIES AND RAIN
TTITLE16=DUSTY - MIDNIGHT LOVER
TTITLE17=STICKY TRICKY AND BANG - STICKY, TRICKY AND BANG!
TTITLE18=CCCD - CCCD
EXTD=
EXTT0=
EXTT1=
EXTT2=
EXTT3=
EXTT4=
EXTT5=
EXTT6=
EXTT7=
EXTT8=
EXTT9=
EXTT10=
EXTT11=
EXTT12=
EXTT13=
EXTT14=
EXTT15=
EXTT16=
EXTT17=
EXTT18=
PLAYORDER=
